<svg width="944" height="944" viewBox="0 0 944 944" xmlns="http://www.w3.org/2000/svg">
<defs>
  <radialGradient id="ng" cx="38%" cy="32%" r="65%">
    <stop offset="0%" stop-color="#FFE090"/>
    <stop offset="100%" stop-color="#8A6020"/>
  </radialGradient>
  <radialGradient id="ne" cx="38%" cy="32%" r="65%">
    <stop offset="0%" stop-color="#FFCC60"/>
    <stop offset="100%" stop-color="#D4A84A"/>
  </radialGradient>
  <radialGradient id="bgr" cx="50%" cy="50%" r="70%">
    <stop offset="0%" stop-color="#221608"/>
    <stop offset="100%" stop-color="#0C0804"/>
  </radialGradient>
  <filter id="pg" x="-30%" y="-30%" width="160%" height="160%">
    <feGaussianBlur stdDeviation="12" result="b"/>
    <feMerge><feMergeNode in="b"/><feMergeNode in="b"/><feMergeNode in="SourceGraphic"/></feMerge>
  </filter>
  <filter id="ng2" x="-80%" y="-80%" width="260%" height="260%">
    <feGaussianBlur stdDeviation="20" result="b"/>
    <feMerge><feMergeNode in="b"/><feMergeNode in="SourceGraphic"/></feMerge>
  </filter>
  <filter id="ngs" x="-50%" y="-50%" width="200%" height="200%">
    <feGaussianBlur stdDeviation="8" result="b"/>
    <feMerge><feMergeNode in="b"/><feMergeNode in="SourceGraphic"/></feMerge>
  </filter>
  <clipPath id="rnd"><rect width="944" height="944" rx="200"/></clipPath>
</defs>

<rect width="944" height="944" rx="200" fill="url(#bgr)"/>
<g clip-path="url(#rnd)">

<rect x="52" y="52" width="140" height="140" fill="#1E1409" opacity="0.6"/>
<rect x="192" y="52" width="140" height="140" fill="#1E1409" opacity="0.6"/>
<rect x="332" y="52" width="140" height="140" fill="#1E1409" opacity="0.6"/>
<rect x="472" y="52" width="140" height="140" fill="#1E1409" opacity="0.6"/>
<rect x="612" y="52" width="140" height="140" fill="#1E1409" opacity="0.6"/>
<rect x="752" y="52" width="140" height="140" fill="#1E1409" opacity="0.6"/>
<rect x="52" y="192" width="140" height="140" fill="#1E1409" opacity="0.6"/>
<rect x="192" y="192" width="140" height="140" fill="#1E1409" opacity="0.6"/>
<rect x="332" y="192" width="140" height="140" fill="#1E1409" opacity="0.6"/>
<rect x="472" y="192" width="140" height="140" fill="#1E1409" opacity="0.6"/>
<rect x="612" y="192" width="140" height="140" fill="#1E1409" opacity="0.6"/>
<rect x="752" y="192" width="140" height="140" fill="#1E1409" opacity="0.6"/>
<rect x="52" y="332" width="140" height="140" fill="#1E1409" opacity="0.6"/>
<rect x="192" y="332" width="140" height="140" fill="#1E1409" opacity="0.6"/>
<rect x="332" y="332" width="140" height="140" fill="#1E1409" opacity="0.6"/>
<rect x="472" y="332" width="140" height="140" fill="#1E1409" opacity="0.6"/>
<rect x="612" y="332" width="140" height="140" fill="#1E1409" opacity="0.6"/>
<rect x="752" y="332" width="140" height="140" fill="#1E1409" opacity="0.6"/>
<rect x="52" y="472" width="140" height="140" fill="#1E1409" opacity="0.6"/>
<rect x="192" y="472" width="140" height="140" fill="#1E1409" opacity="0.6"/>
<rect x="332" y="472" width="140" height="140" fill="#1E1409" opacity="0.6"/>
<rect x="472" y="472" width="140" height="140" fill="#1E1409" opacity="0.6"/>
<rect x="612" y="472" width="140" height="140" fill="#1E1409" opacity="0.6"/>
<rect x="752" y="472" width="140" height="140" fill="#1E1409" opacity="0.6"/>
<rect x="52" y="612" width="140" height="140" fill="#1E1409" opacity="0.6"/>
<rect x="192" y="612" width="140" height="140" fill="#1E1409" opacity="0.6"/>
<rect x="332" y="612" width="140" height="140" fill="#1E1409" opacity="0.6"/>
<rect x="472" y="612" width="140" height="140" fill="#1E1409" opacity="0.6"/>
<rect x="612" y="612" width="140" height="140" fill="#1E1409" opacity="0.6"/>
<rect x="752" y="612" width="140" height="140" fill="#1E1409" opacity="0.6"/>
<rect x="52" y="752" width="140" height="140" fill="#1E1409" opacity="0.6"/>
<rect x="192" y="752" width="140" height="140" fill="#1E1409" opacity="0.6"/>
<rect x="332" y="752" width="140" height="140" fill="#1E1409" opacity="0.6"/>
<rect x="472" y="752" width="140" height="140" fill="#1E1409" opacity="0.6"/>
<rect x="612" y="752" width="140" height="140" fill="#1E1409" opacity="0.6"/>
<rect x="752" y="752" width="140" height="140" fill="#1E1409" opacity="0.6"/>
<g filter="url(#pg)" opacity="0.6">
<line x1="822" y1="822" x2="822" y2="682" stroke="#D4A84A" stroke-width="32" stroke-linecap="round"/>
<line x1="822" y1="682" x2="682" y2="682" stroke="#D4A84A" stroke-width="32" stroke-linecap="round"/>
<line x1="682" y1="682" x2="542" y2="682" stroke="#D4A84A" stroke-width="32" stroke-linecap="round"/>
<line x1="542" y1="682" x2="542" y2="542" stroke="#D4A84A" stroke-width="32" stroke-linecap="round"/>
<line x1="542" y1="542" x2="682" y2="542" stroke="#D4A84A" stroke-width="32" stroke-linecap="round"/>
<line x1="682" y1="542" x2="682" y2="402" stroke="#D4A84A" stroke-width="32" stroke-linecap="round"/>
<line x1="682" y1="402" x2="822" y2="402" stroke="#D4A84A" stroke-width="32" stroke-linecap="round"/>
<line x1="822" y1="402" x2="822" y2="262" stroke="#D4A84A" stroke-width="32" stroke-linecap="round"/>
<line x1="822" y1="262" x2="822" y2="122" stroke="#D4A84A" stroke-width="32" stroke-linecap="round"/>
<line x1="822" y1="122" x2="682" y2="122" stroke="#D4A84A" stroke-width="32" stroke-linecap="round"/>
<line x1="682" y1="122" x2="542" y2="122" stroke="#D4A84A" stroke-width="32" stroke-linecap="round"/>
<line x1="542" y1="122" x2="402" y2="122" stroke="#D4A84A" stroke-width="32" stroke-linecap="round"/>
<line x1="402" y1="122" x2="402" y2="262" stroke="#D4A84A" stroke-width="32" stroke-linecap="round"/>
<line x1="402" y1="262" x2="402" y2="402" stroke="#D4A84A" stroke-width="32" stroke-linecap="round"/>
<line x1="402" y1="402" x2="402" y2="542" stroke="#D4A84A" stroke-width="32" stroke-linecap="round"/>
<line x1="402" y1="542" x2="402" y2="682" stroke="#D4A84A" stroke-width="32" stroke-linecap="round"/>
<line x1="402" y1="682" x2="402" y2="822" stroke="#D4A84A" stroke-width="32" stroke-linecap="round"/>
<line x1="402" y1="822" x2="262" y2="822" stroke="#D4A84A" stroke-width="32" stroke-linecap="round"/>
<line x1="262" y1="822" x2="122" y2="822" stroke="#D4A84A" stroke-width="32" stroke-linecap="round"/>
<line x1="122" y1="822" x2="122" y2="682" stroke="#D4A84A" stroke-width="32" stroke-linecap="round"/>
<line x1="122" y1="682" x2="122" y2="542" stroke="#D4A84A" stroke-width="32" stroke-linecap="round"/>
<line x1="122" y1="542" x2="122" y2="402" stroke="#D4A84A" stroke-width="32" stroke-linecap="round"/>
<line x1="122" y1="402" x2="122" y2="262" stroke="#D4A84A" stroke-width="32" stroke-linecap="round"/>
<line x1="122" y1="262" x2="262" y2="262" stroke="#D4A84A" stroke-width="32" stroke-linecap="round"/>
<line x1="262" y1="262" x2="262" y2="122" stroke="#D4A84A" stroke-width="32" stroke-linecap="round"/>
<line x1="262" y1="122" x2="122" y2="122" stroke="#D4A84A" stroke-width="32" stroke-linecap="round"/>
</g>
<g>
<line x1="822" y1="822" x2="822" y2="682" stroke="#D4A84A" stroke-width="12" stroke-linecap="round"/>
<line x1="822" y1="682" x2="682" y2="682" stroke="#D4A84A" stroke-width="12" stroke-linecap="round"/>
<line x1="682" y1="682" x2="542" y2="682" stroke="#D4A84A" stroke-width="12" stroke-linecap="round"/>
<line x1="542" y1="682" x2="542" y2="542" stroke="#D4A84A" stroke-width="12" stroke-linecap="round"/>
<line x1="542" y1="542" x2="682" y2="542" stroke="#D4A84A" stroke-width="12" stroke-linecap="round"/>
<line x1="682" y1="542" x2="682" y2="402" stroke="#D4A84A" stroke-width="12" stroke-linecap="round"/>
<line x1="682" y1="402" x2="822" y2="402" stroke="#D4A84A" stroke-width="12" stroke-linecap="round"/>
<line x1="822" y1="402" x2="822" y2="262" stroke="#D4A84A" stroke-width="12" stroke-linecap="round"/>
<line x1="822" y1="262" x2="822" y2="122" stroke="#D4A84A" stroke-width="12" stroke-linecap="round"/>
<line x1="822" y1="122" x2="682" y2="122" stroke="#D4A84A" stroke-width="12" stroke-linecap="round"/>
<line x1="682" y1="122" x2="542" y2="122" stroke="#D4A84A" stroke-width="12" stroke-linecap="round"/>
<line x1="542" y1="122" x2="402" y2="122" stroke="#D4A84A" stroke-width="12" stroke-linecap="round"/>
<line x1="402" y1="122" x2="402" y2="262" stroke="#D4A84A" stroke-width="12" stroke-linecap="round"/>
<line x1="402" y1="262" x2="402" y2="402" stroke="#D4A84A" stroke-width="12" stroke-linecap="round"/>
<line x1="402" y1="402" x2="402" y2="542" stroke="#D4A84A" stroke-width="12" stroke-linecap="round"/>
<line x1="402" y1="542" x2="402" y2="682" stroke="#D4A84A" stroke-width="12" stroke-linecap="round"/>
<line x1="402" y1="682" x2="402" y2="822" stroke="#D4A84A" stroke-width="12" stroke-linecap="round"/>
<line x1="402" y1="822" x2="262" y2="822" stroke="#D4A84A" stroke-width="12" stroke-linecap="round"/>
<line x1="262" y1="822" x2="122" y2="822" stroke="#D4A84A" stroke-width="12" stroke-linecap="round"/>
<line x1="122" y1="822" x2="122" y2="682" stroke="#D4A84A" stroke-width="12" stroke-linecap="round"/>
<line x1="122" y1="682" x2="122" y2="542" stroke="#D4A84A" stroke-width="12" stroke-linecap="round"/>
<line x1="122" y1="542" x2="122" y2="402" stroke="#D4A84A" stroke-width="12" stroke-linecap="round"/>
<line x1="122" y1="402" x2="122" y2="262" stroke="#D4A84A" stroke-width="12" stroke-linecap="round"/>
<line x1="122" y1="262" x2="262" y2="262" stroke="#D4A84A" stroke-width="12" stroke-linecap="round"/>
<line x1="262" y1="262" x2="262" y2="122" stroke="#D4A84A" stroke-width="12" stroke-linecap="round"/>
<line x1="262" y1="122" x2="122" y2="122" stroke="#D4A84A" stroke-width="12" stroke-linecap="round"/>
</g>
<line x1="192" y1="52" x2="332" y2="52" stroke="#0A0705" stroke-width="14" stroke-linecap="square"/>
<line x1="332" y1="52" x2="472" y2="52" stroke="#0A0705" stroke-width="14" stroke-linecap="square"/>
<line x1="472" y1="52" x2="612" y2="52" stroke="#0A0705" stroke-width="14" stroke-linecap="square"/>
<line x1="612" y1="52" x2="752" y2="52" stroke="#0A0705" stroke-width="14" stroke-linecap="square"/>
<line x1="752" y1="52" x2="892" y2="52" stroke="#0A0705" stroke-width="14" stroke-linecap="square"/>
<line x1="52" y1="192" x2="192" y2="192" stroke="#0A0705" stroke-width="14" stroke-linecap="square"/>
<line x1="472" y1="192" x2="612" y2="192" stroke="#0A0705" stroke-width="14" stroke-linecap="square"/>
<line x1="612" y1="192" x2="752" y2="192" stroke="#0A0705" stroke-width="14" stroke-linecap="square"/>
<line x1="192" y1="332" x2="332" y2="332" stroke="#0A0705" stroke-width="14" stroke-linecap="square"/>
<line x1="612" y1="332" x2="752" y2="332" stroke="#0A0705" stroke-width="14" stroke-linecap="square"/>
<line x1="752" y1="472" x2="892" y2="472" stroke="#0A0705" stroke-width="14" stroke-linecap="square"/>
<line x1="612" y1="612" x2="752" y2="612" stroke="#0A0705" stroke-width="14" stroke-linecap="square"/>
<line x1="192" y1="752" x2="332" y2="752" stroke="#0A0705" stroke-width="14" stroke-linecap="square"/>
<line x1="472" y1="752" x2="612" y2="752" stroke="#0A0705" stroke-width="14" stroke-linecap="square"/>
<line x1="612" y1="752" x2="752" y2="752" stroke="#0A0705" stroke-width="14" stroke-linecap="square"/>
<line x1="52" y1="892" x2="192" y2="892" stroke="#0A0705" stroke-width="14" stroke-linecap="square"/>
<line x1="192" y1="892" x2="332" y2="892" stroke="#0A0705" stroke-width="14" stroke-linecap="square"/>
<line x1="332" y1="892" x2="472" y2="892" stroke="#0A0705" stroke-width="14" stroke-linecap="square"/>
<line x1="472" y1="892" x2="612" y2="892" stroke="#0A0705" stroke-width="14" stroke-linecap="square"/>
<line x1="612" y1="892" x2="752" y2="892" stroke="#0A0705" stroke-width="14" stroke-linecap="square"/>
<line x1="52" y1="52" x2="52" y2="192" stroke="#0A0705" stroke-width="14" stroke-linecap="square"/>
<line x1="332" y1="52" x2="332" y2="192" stroke="#0A0705" stroke-width="14" stroke-linecap="square"/>
<line x1="892" y1="52" x2="892" y2="192" stroke="#0A0705" stroke-width="14" stroke-linecap="square"/>
<line x1="52" y1="192" x2="52" y2="332" stroke="#0A0705" stroke-width="14" stroke-linecap="square"/>
<line x1="332" y1="192" x2="332" y2="332" stroke="#0A0705" stroke-width="14" stroke-linecap="square"/>
<line x1="472" y1="192" x2="472" y2="332" stroke="#0A0705" stroke-width="14" stroke-linecap="square"/>
<line x1="752" y1="192" x2="752" y2="332" stroke="#0A0705" stroke-width="14" stroke-linecap="square"/>
<line x1="892" y1="192" x2="892" y2="332" stroke="#0A0705" stroke-width="14" stroke-linecap="square"/>
<line x1="52" y1="332" x2="52" y2="472" stroke="#0A0705" stroke-width="14" stroke-linecap="square"/>
<line x1="192" y1="332" x2="192" y2="472" stroke="#0A0705" stroke-width="14" stroke-linecap="square"/>
<line x1="472" y1="332" x2="472" y2="472" stroke="#0A0705" stroke-width="14" stroke-linecap="square"/>
<line x1="612" y1="332" x2="612" y2="472" stroke="#0A0705" stroke-width="14" stroke-linecap="square"/>
<line x1="892" y1="332" x2="892" y2="472" stroke="#0A0705" stroke-width="14" stroke-linecap="square"/>
<line x1="52" y1="472" x2="52" y2="612" stroke="#0A0705" stroke-width="14" stroke-linecap="square"/>
<line x1="192" y1="472" x2="192" y2="612" stroke="#0A0705" stroke-width="14" stroke-linecap="square"/>
<line x1="332" y1="472" x2="332" y2="612" stroke="#0A0705" stroke-width="14" stroke-linecap="square"/>
<line x1="472" y1="472" x2="472" y2="612" stroke="#0A0705" stroke-width="14" stroke-linecap="square"/>
<line x1="752" y1="472" x2="752" y2="612" stroke="#0A0705" stroke-width="14" stroke-linecap="square"/>
<line x1="892" y1="472" x2="892" y2="612" stroke="#0A0705" stroke-width="14" stroke-linecap="square"/>
<line x1="52" y1="612" x2="52" y2="752" stroke="#0A0705" stroke-width="14" stroke-linecap="square"/>
<line x1="192" y1="612" x2="192" y2="752" stroke="#0A0705" stroke-width="14" stroke-linecap="square"/>
<line x1="332" y1="612" x2="332" y2="752" stroke="#0A0705" stroke-width="14" stroke-linecap="square"/>
<line x1="472" y1="612" x2="472" y2="752" stroke="#0A0705" stroke-width="14" stroke-linecap="square"/>
<line x1="892" y1="612" x2="892" y2="752" stroke="#0A0705" stroke-width="14" stroke-linecap="square"/>
<line x1="52" y1="752" x2="52" y2="892" stroke="#0A0705" stroke-width="14" stroke-linecap="square"/>
<line x1="472" y1="752" x2="472" y2="892" stroke="#0A0705" stroke-width="14" stroke-linecap="square"/>
<line x1="892" y1="752" x2="892" y2="892" stroke="#0A0705" stroke-width="14" stroke-linecap="square"/>
<circle cx="822" cy="822" r="28" fill="url(#ne)" filter="url(#ng2)"/>
<circle cx="814" cy="814" r="10" fill="#FFF0B0" opacity="0.5"/>
<circle cx="682" cy="682" r="18" fill="url(#ng)" filter="url(#ngs)"/>
<circle cx="542" cy="542" r="18" fill="url(#ng)" filter="url(#ngs)"/>
<circle cx="682" cy="402" r="18" fill="url(#ng)" filter="url(#ngs)"/>
<circle cx="822" cy="262" r="18" fill="url(#ng)" filter="url(#ngs)"/>
<circle cx="682" cy="122" r="18" fill="url(#ng)" filter="url(#ngs)"/>
<circle cx="402" cy="122" r="18" fill="url(#ng)" filter="url(#ngs)"/>
<circle cx="402" cy="402" r="18" fill="url(#ng)" filter="url(#ngs)"/>
<circle cx="402" cy="682" r="18" fill="url(#ng)" filter="url(#ngs)"/>
<circle cx="262" cy="822" r="18" fill="url(#ng)" filter="url(#ngs)"/>
<circle cx="122" cy="682" r="18" fill="url(#ng)" filter="url(#ngs)"/>
<circle cx="122" cy="402" r="18" fill="url(#ng)" filter="url(#ngs)"/>
<circle cx="262" cy="262" r="18" fill="url(#ng)" filter="url(#ngs)"/>
<circle cx="122" cy="122" r="28" fill="url(#ne)" filter="url(#ng2)"/>
<circle cx="114" cy="114" r="10" fill="#FFF0B0" opacity="0.5"/>
</g>
<rect width="944" height="944" rx="200" fill="none" stroke="#D4A84A" stroke-width="3" opacity="0.12"/>
</svg>